<?xml version="1.0" standalone="no"?>
<!DOCTYPE svg PUBLIC "-//W3C//DTD SVG 1.1//EN"
  "http://www.w3.org/Graphics/SVG/1.1/DTD/svg11.dtd">
<svg width="76.63883590698242mm" height="104.306770324707mm" viewBox="-44.56383514404297 -43.23176956176757 76.63883590698242 104.306770324707" xmlns="http://www.w3.org/2000/svg" version="1.1">
	<title>svgOutput</title>
	<desc>made with tinkercad</desc>
<path d="M -42.465919494628906 -2.758123874664306 L -42.46638870239258 -2.760146617889404 L -42.525917053222656 -3.016000032424926 L -42.7757453918457 -4.089747428894042 L -42.777198791503906 -4.09600019454956 L -42.93575668334961 -4.777559280395507 L -43.07905960083008 -5.620349407196044 L -43.27989959716797 -6.796660900115965 L -43.281375885009766 -6.810220241546629 L -43.321319580078125 -7.177058219909666 L -43.4323616027832 -8.19200038909912 L -43.474735260009766 -8.57933712005615 L -43.49217987060547 -8.765206336975096 L -43.49665069580078 -8.8132266998291 L -43.549896240234375 -10.409730911254881 L -43.56383514404297 -10.82190418243408 L -43.56374740600586 -10.824970245361326 L -43.52798080444336 -12.083421707153317 L -43.52227783203125 -12.28800010681152 L -43.50754165649414 -12.81680870056152 L -43.5069465637207 -12.823505401611325 L -43.421756744384766 -13.783485412597653 L -43.3310432434082 -14.791355133056637 L -43.22026443481445 -15.513822555541989 L -43.08802032470703 -16.38400077819824 L -43.03364562988281 -16.741806030273434 L -43.02793884277344 -16.768117904663082 L -42.918155670166016 -17.274169921874996 L -42.61521530151367 -18.66358375549316 L -42.499244689941406 -19.07048416137695 L -42.09782791137695 -20.479999542236325 L -42.07752227783203 -20.551296234130856 L -41.951133728027344 -20.90757369995117 L -41.42280960083008 -22.40211486816406 L -41.41181945800781 -22.427808761596676 L -41.255157470703125 -22.79408454895019 L -40.959999084472656 -23.484199523925778 L -40.65009307861328 -24.208801269531243 L -40.64988708496094 -24.2092056274414 L -40.46508026123047 -24.57600021362304 L -40.3797492980957 -24.74536705017089 L -39.762516021728516 -25.96901893615722 L -39.285709381103516 -26.78461837768554 L -38.76353073120117 -27.6778335571289 L -38.76352310180664 -27.677845001220696 L -38.095802307128906 -28.67200088500976 L -37.911407470703125 -28.946540832519524 L -37.65266799926758 -29.331396102905266 L -37.02275466918945 -30.156970977783196 L -36.99955368041992 -30.187377929687493 L -36.86399841308594 -30.361289978027337 L -36.4224739074707 -30.927761077880852 L -36.41569519042969 -30.935438156127923 L -35.981563568115234 -31.42713546752929 L -35.06745910644531 -32.46251678466796 L -35.06696319580078 -32.46301269531249 L -34.76357650756836 -32.76800155639648 L -34.13059997558594 -33.404312133789055 L -34.12302780151367 -33.41192626953124 L -33.59010696411133 -33.9333152770996 L -33.587825775146484 -33.93530273437499 L -32.768001556396484 -34.64926528930663 L -32.07585525512695 -35.25203704833984 L -31.97599983215332 -35.33900070190429 L -31.94585418701172 -35.361648559570305 L -30.307100296020508 -36.59280014038085 L -30.233657836914062 -36.64797592163085 L -30.189167022705078 -36.68022155761718 L -30.16478729248047 -36.69596862792968 L -29.904664993286133 -36.86399841308593 L -28.775991439819336 -37.59307861328124 L -28.7545166015625 -37.60695266723632 L -28.672000885009766 -37.65826416015624 L -28.18585777282715 -37.96058273315429 L -28.17982292175293 -37.96392822265624 L -27.457975387573242 -38.36404418945312 L -26.712827682495117 -38.7591323852539 L -26.424510955810547 -38.91199874877929 L -26.302404403686523 -38.97674179077148 L -26.299949645996094 -38.978042602539055 L -25.887590408325195 -39.18609619140624 L -25.886730194091797 -39.18648529052734 L -25.252660751342773 -39.47210311889648 L -24.916362762451172 -39.61652755737304 L -24.576000213623047 -39.76266860961913 L -24.289031982421875 -39.88588333129882 L -23.550395965576172 -40.18591308593749 L -23.476211547851562 -40.21598815917968 L -23.394914627075195 -40.24894714355468 L -23.02577781677246 -40.38887405395507 L -22.994644165039062 -40.39946746826171 L -22.565689086914062 -40.54544830322265 L -22.557329177856445 -40.548294067382805 L -22.43594741821289 -40.58740234374999 L -21.770715713500977 -40.802505493164055 L -21.764644622802734 -40.80446624755859 L -21.47344970703125 -40.891162872314446 L -21.242643356323242 -40.95999908447265 L -21.01567268371582 -41.02769470214843 L -21.00967788696289 -41.02947998046874 L -20.592269897460938 -41.144721984863274 L -20.479999542236328 -41.17575073242187 L -20.285375595092773 -41.22954559326171 L -19.773311614990234 -41.35892486572265 L -19.597244262695312 -41.40316772460937 L -19.584815979003906 -41.406291961669915 L -19.002750396728516 -41.54074478149413 L -18.90275764465332 -41.56388854980468 L -18.43199920654297 -41.66147232055663 L -18.285892486572266 -41.69175720214843 L -18.272705078125 -41.69449234008788 L -18.236055374145508 -41.70207977294921 L -17.649486541748047 -41.80816268920898 L -17.63726043701172 -41.810256958007805 L -17.5792236328125 -41.820205688476555 L -17.578811645507812 -41.8202781677246 L -17.57579231262207 -41.82073593139648 L -16.927892684936523 -41.92083358764648 L -16.907987594604492 -41.92355346679687 L -16.384000778198242 -41.99444198608398 L -16.279197692871094 -42.008621215820305 L -16.278581619262695 -42.00870132446288 L -16.25319480895996 -42.01154708862304 L -15.627240180969238 -42.08206176757812 L -15.60791301727295 -42.083911895751946 L -14.971029281616211 -42.14401245117187 L -14.970702171325684 -42.14404296874999 L -14.967844009399414 -42.1442527770996 L -14.899270057678223 -42.14945983886718 L -14.337388038635254 -42.18691253662109 L -14.305085182189941 -42.18906021118163 L -13.708242416381836 -42.214668273925774 L -13.633427619934082 -42.21781921386718 L -13.623894691467285 -42.21821975708007 L -13.077305793762207 -42.22877883911132 L -12.956687927246094 -42.231155395507805 L -12.925492286682129 -42.23176956176757 L -12.439179420471191 -42.23113250732421 L -12.288000106811523 -42.231128692626946 L -12.203051567077637 -42.23112487792968 L -11.790977478027344 -42.22139358520507 L -11.45941162109375 -42.21343231201171 L -11.45174789428711 -42.21324920654296 L -11.128974914550781 -42.19929885864257 L -10.664627075195312 -42.17943954467773 L -10.449857711791992 -42.16576385498046 L -10.239999771118164 -42.15198898315429 L -9.843708992004395 -42.12598037719726 L -9.833707809448242 -42.12532424926757 L -9.74808406829834 -42.118152618408196 L -9.341095924377441 -42.08483886718749 L -9.037074089050293 -42.04938888549804 L -8.988807678222656 -42.04367446899413 L -8.949527740478516 -42.03902435302734 L -8.318195343017578 -41.95032882690429 L -8.192000389099121 -41.93276214599609 L -8.012711524963379 -41.90780639648437 L -7.993974685668945 -41.90519714355468 L -7.567657947540283 -41.836555480957024 L -6.959244728088379 -41.73914718627929 L -6.7797441482543945 -41.7070083618164 L -6.273884296417236 -41.61626815795898 L -6.144000053405762 -41.58698654174804 L -5.969813823699951 -41.54772186279296 L -5.823448657989502 -41.51479339599609 L -5.148508071899414 -41.34885025024413 L -4.553391456604004 -41.202033996582024 L -4.551479816436768 -41.20156478881835 L -4.275805473327637 -41.128276824951165 L -4.0960001945495605 -41.08049774169921 L -3.7478864192962646 -40.98799896240234 L -3.6603198051452637 -40.95999908447265 L -3.3752264976501465 -40.86883926391601 L -3.213252544403076 -40.816848754882805 L -3.110919237136841 -40.78400039672851 L -2.454155683517456 -40.560291290283196 L -1.530476689338684 -40.24810791015624 L -1.4953055381774902 -40.236221313476555 L -1.4688791036605835 -40.22567749023437 L -1.4443448781967163 -40.21580505371093 L -0.4918970763683319 -39.81276321411132 L -1.200991498769401e-14 -39.606575012207024 L 0.5386117696762085 -39.38080215454101 L 0.5619999766349792 -39.37099838256835 L 1.4624431133270264 -38.91199874877929 L 1.6031445264816284 -38.840278625488274 L 2.467869281768799 -38.40120697021484 L 2.708580255508423 -38.26065063476562 L 3.110912561416626 -38.02553558349609 L 3.8217172622680664 -37.59706497192382 L 4.0960001945495605 -37.43169784545898 L 4.256506443023682 -37.3349266052246 L 4.9420270919799805 -36.86399841308593 L 4.959322929382324 -36.852119445800774 L 5.942505359649658 -36.176284790039055 L 6.1327385902404785 -36.02783584594726 L 6.681598663330078 -35.59909439086913 L 7.303639888763428 -35.10317611694335 L 7.516031265258789 -34.933582305908196 L 7.522358417510986 -34.92852783203124 L 8.192000389099121 -34.32402038574218 L 8.470976829528809 -34.07218170166015 L 8.998331069946289 -33.596485137939446 L 8.99910831451416 -33.59578704833984 L 9.643779754638672 -32.936199188232415 L 9.808197021484375 -32.76800155639648 L 10 -32.57178878784179 L 10.37331485748291 -32.189888000488274 L 10.381301879882812 -32.181716918945305 L 10.808979988098145 -31.68608093261718 L 11.668998718261719 -30.69154739379882 L 11.952943801879883 -30.317117691040032 L 12.288000106811523 -29.874914169311516 L 12.854969024658203 -29.12663269042968 L 13.061079025268555 -28.816190719604485 L 13.156585693359375 -28.67200088500976 L 13.937331199645996 -27.493267059326165 L 13.937881469726562 -27.49243545532226 L 14.120903968811035 -27.17413902282714 L 14.914323806762695 -25.794834136962884 L 14.915833473205566 -25.792209625244134 L 15.116844177246094 -25.385066986083977 L 15.516712188720703 -24.57600021362304 L 15.786571502685547 -24.029981613159173 L 16.03411293029785 -23.43833541870117 L 16.384000778198242 -22.600599288940426 L 16.543142318725586 -22.21956634521484 L 16.547060012817383 -22.210182189941403 L 16.855499267578125 -21.319538116455075 L 17.14686393737793 -20.479999542236325 L 17.196165084838867 -20.337944030761715 L 17.563261032104492 -19.024181365966793 L 17.73261260986328 -18.417169570922848 L 18.137258529663086 -16.529005050659176 L 18.15188217163086 -16.460765838623043 L 18.15389633178711 -16.451366424560543 L 18.164154052734375 -16.38400077819824 L 18.189231872558594 -16.21929550170898 L 18.193758010864258 -16.18613815307617 L 18.431610107421875 -14.443610191345211 L 18.483983993530273 -13.75161266326904 L 18.58528709411621 -12.406641006469723 L 18.585790634155273 -12.399971008300778 L 18.587507247924805 -12.28800010681152 L 18.61191177368164 -10.696325302124022 L 18.617666244506836 -10.326588630676268 L 18.59061622619629 -9.680846214294432 L 18.497163772583008 -8.224866867065428 L 18.49709129333496 -8.223727226257322 L 18.49315643310547 -8.19200038909912 L 18.369693756103516 -7.1963272094726545 L 18.23360824584961 -6.098282337188719 L 17.997602462768555 -4.79552412033081 L 17.850772857666016 -4.09600019454956 L 17.821414947509766 -3.956139087677001 L 17.821020126342773 -3.9542548656463614 L 17.568286895751953 -3.016000032424926 L 17.568086624145508 -3.015260934829711 L 17.242185592651367 -1.804839730262756 L 17.239477157592773 -1.7947818040847774 L 16.934017181396484 -0.865921318531036 L 16.929353713989258 -0.8531278967857358 L 16.618314743041992 1.1102230246251565e-16 L 16.48103904724121 0.3765200078487396 L 16.384000778198242 0.6050021052360535 L 15.616654396057129 2.4117288589477535 L 15.550065040588379 2.554165124893188 L 15.549696922302246 2.5549523830413814 L 15.282753944396973 3.0567049980163565 L 14.72993278503418 4.09600019454956 L 14.386844635009766 4.741000175476073 L 14.1398344039917 5.155627727508544 L 12.98542308807373 6.932615756988524 L 12.576022148132324 7.503470897674559 L 12.037978172302246 8.19200038909912 L 11.3187255859375 9.112417221069334 L 11.306032180786133 9.128661155700682 L 10.965326309204102 9.527368545532225 L 10.950447082519531 9.54333972930908 L 10 10.563536643981932 L 9.512222290039062 11.087111473083494 L 9.329861640930176 11.282839775085447 L 9.279292106628418 11.332346916198729 L 9.278602600097656 11.333021163940428 L 8.224905014038086 12.28800010681152 L 8.192000389099121 12.31782245635986 L 7.676174640655518 12.785320281982418 L 7.669372081756592 12.790925979614254 L 6.755106449127197 13.544304847717282 L 6.734015941619873 13.561683654785153 L 6.026487827301025 14.105268478393551 L 6.005073070526123 14.120138168334957 L 5.227707386016846 14.659902572631832 L 4.378556728363037 15.248928070068356 L 4.0960001945495605 15.424981117248532 L 3.459155797958374 15.821781158447262 L 3.4300308227539062 15.83992767333984 L 2.7376153469085693 16.24501228332519 L 2.7124080657958984 16.258131027221676 L 2.4705307483673096 16.38400077819824 L 2.30076265335083 16.472345352172848 L 1.100333333015442 17.09651374816894 L -4.54286385392173e-15 17.59999847412109 L -0.12279919534921646 17.656188964843746 L -0.5275266170501709 17.84125709533691 L -1.681267499923706 18.295686721801754 L -2.1525380611419678 18.47217750549316 L -2.2809579372406006 18.513109207153317 L -3.7777340412139893 18.987915039062496 L -4.0960001945495605 19.07108116149902 L -4.222341537475586 19.10409545898437 L -5.402198791503906 19.412788391113278 L -5.409082889556885 19.414203643798825 L -6.043290615081787 19.54463958740234 L -7.030242919921875 19.74762153625488 L -7.766945838928223 19.85922241210937 L -8.192000389099121 19.92383766174316 L -8.665628433227539 19.9958381652832 L -8.674386024475098 19.9966869354248 L -9.410993576049805 20.067966461181637 L -10.311699867248535 20.154817581176754 L -10.988446235656738 20.184154510498043 L -11.971914291381836 20.22651672363281 L -12.513396263122559 20.221462249755856 L -13.651106834411621 20.211372375488278 L -13.661232948303223 20.210748672485348 L -13.995477676391602 20.190145492553707 L -15.351502418518066 20.106906890869137 L -15.358314514160156 20.106138229370114 L -15.44246768951416 20.096651077270504 L -15.85145378112793 20.050836563110348 L -15.8698091506958 20.048469543457028 L -16.384000778198242 19.982156753540036 L -16.836956024169922 19.923740386962887 L -17.080808639526367 19.89216804504394 L -18.193052291870117 19.686996459960934 L -18.839920043945312 19.567401885986325 L -19.53028678894043 19.402683258056637 L -20.479999542236328 19.177415847778317 L -20.633546829223633 19.140995025634762 L -20.85474967956543 19.076875686645504 L -21.403165817260742 18.917308807373043 L -22.13677215576172 18.68185997009277 L -22.466711044311523 18.57570648193359 L -23.386451721191406 18.227842330932614 L -24.34156036376953 17.86782836914062 L -24.36414909362793 17.858057022094723 L -24.576000213623047 17.76639938354492 L -24.633529663085938 17.741510391235348 L -25.159469604492188 17.51311874389648 L -25.84064483642578 17.189153671264645 L -26.26156234741211 16.990028381347653 L -26.279993057250977 16.980203628540036 L -27.02107810974121 16.58507919311523 L -27.39706039428711 16.38400077819824 L -28.167394638061523 15.972016334533688 L -28.20301628112793 15.95115756988525 L -28.229236602783203 15.9358377456665 L -28.22979164123535 15.935477256774899 L -28.672000885009766 15.648797988891598 L -29.314289093017578 15.232406616210934 L -30.239904403686523 14.632852554321286 L -30.2481746673584 14.62697601318359 L -30.436603546142578 14.493073463439938 L -30.666854858398438 14.329241752624508 L -31.500486373901367 13.679838180541989 L -32.29193115234375 13.062911033630368 L -32.5594596862793 12.836087226867672 L -32.768001556396484 12.659153938293453 L -32.8271484375 12.60897064208984 L -33.17222213745117 12.28800010681152 L -33.5627555847168 11.924750328063963 L -34.37614822387695 11.167024612426756 L -34.55849075317383 10.983486175537108 L -34.7160530090332 10.82521057128906 L -34.719242095947266 10.821678161621092 L -35.487857818603516 9.9708776473999 L -36.373878479003906 8.987971305847166 L -36.41568374633789 8.936536788940428 L -36.4735221862793 8.865392684936522 L -36.473751068115234 8.865089416503904 L -36.86399841308594 8.348318099975584 L -36.9820442199707 8.19200038909912 L -37.260772705078125 7.822908401489256 L -37.80451965332031 7.103320121765135 L -37.807411193847656 7.099038124084471 L -38.08932113647461 6.681727409362791 L -38.543861389160156 6.008492469787596 L -38.868988037109375 5.491829395294189 L -39.06441116333008 5.181718349456786 L -39.06654739379883 5.177880287170409 L -39.58586120605469 4.2452001571655265 L -39.66880416870117 4.09600019454956 L -40.15086364746094 3.2288432121276847 L -40.2759895324707 2.9711706638336177 L -40.52580642700195 2.4556083679199214 L -40.893882751464844 1.64000391960144 L -40.959999084472656 1.4933280944824219 L -41.06995391845703 1.249403476715088 L -41.449832916259766 0.2627228796482087 L -41.55112075805664 1.1102230246251565e-16 L -41.839637756347656 -0.7483636140823362 L -41.84223937988281 -0.7565071582794186 L -41.96553421020508 -1.142066359519958 L -42.28338623046875 -2.1385383605957027 L -42.415733337402344 -2.5880873203277583 L -42.465919494628906 -2.758123874664306 M 4.8673200607299805 2.5331227779388423 L 5.2010111808776855 2.04800009727478 L 5.243473529815674 1.9862675666809078 L 5.471438407897949 1.6181666851043697 L 5.817711353302002 1.0589418411254883 L 5.821377277374268 1.0530219078063965 L 6.031385898590088 0.6736008524894714 L 6.144000053405762 0.47051241993904114 L 6.353890419006348 0.09199561178684244 L 6.399196147918701 1.1102230246251565e-16 L 6.545552730560303 -0.2971841990947722 L 6.836740016937256 -0.8892247676849362 L 6.8394036293029785 -0.8946403264999386 L 7.011938571929932 -1.2931885719299312 L 7.277135848999023 -1.904666662216186 L 7.331247329711914 -2.04800009727478 L 7.430543899536133 -2.311022043228149 L 7.662978649139404 -2.928634405136108 L 7.665258884429932 -2.934693098068237 L 7.691491603851318 -3.016000032424926 L 7.7987589836120605 -3.3484649658203116 L 8.003873825073242 -3.982677936553954 L 8.004210472106934 -3.98371934890747 L 8.034576416015625 -4.09600019454956 L 8.117802619934082 -4.403737068176269 L 8.192000389099121 -4.677955627441405 L 8.29216194152832 -5.048135757446288 L 8.385846138000488 -5.473618507385253 L 8.52911376953125 -6.125943183898924 L 8.532170295715332 -6.14400005340576 L 8.60171890258789 -6.554938793182371 L 8.713285446166992 -7.213969230651854 L 8.765592575073242 -7.646868228912352 L 8.831168174743652 -8.19200038909912 L 8.845020294189453 -8.307153701782225 L 8.84545612335205 -8.310776710510252 L 8.876684188842773 -8.745236396789549 L 8.924570083618164 -9.40775394439697 L 8.924846649169922 -9.411582946777342 L 8.935385704040527 -9.847214698791502 L 8.945053100585938 -10.239999771118162 L 8.9518461227417 -10.515999794006346 L 8.941307067871094 -10.951631546020506 L 8.924846649169922 -11.62041664123535 L 8.8936185836792 -12.054877281188961 L 8.876769065856934 -12.28800010681152 L 8.845805168151855 -12.716393470764157 L 8.84545612335205 -12.721223831176754 L 8.7931489944458 -13.154122352600094 L 8.713285446166992 -13.818030357360836 L 8.640679359436035 -14.247026443481442 L 8.625617980957031 -14.33600044250488 L 8.529911041259766 -14.901346206665036 L 8.52911376953125 -14.906057357788082 L 8.435429573059082 -15.33153915405273 L 8.29216194152832 -15.983863830566403 L 8.192000389099121 -16.35422325134277 L 8.18394660949707 -16.38400077819824 L 8.178569793701172 -16.403881072998043 L 8.004210472106934 -17.04828071594238 L 7.870710372924805 -17.46205329895019 L 7.668182849884033 -18.08826637268066 L 7.665258884429932 -18.09730720520019 L 7.538905143737793 -18.431999206542965 L 7.511850833892822 -18.503662109374996 L 7.277135848999023 -19.127332687377926 L 7.10460090637207 -19.52588081359863 L 6.841263771057129 -20.133069992065426 L 6.8394036293029785 -20.13735961914062 L 6.670660972595215 -20.479999542236325 L 6.647741317749023 -20.52653884887695 L 6.353890419006348 -21.123994827270504 L 6.144000053405762 -21.50320243835449 L 6.143881797790527 -21.503416061401364 L 5.821687698364258 -22.0844612121582 L 5.821377277374268 -22.085021972656246 L 5.593412399291992 -22.453123092651364 L 5.547048091888428 -22.527999877929684 L 5.243473529815674 -23.01826667785644 L 4.99833345413208 -23.374658584594723 L 4.622179985046387 -23.921512603759762 L 4.359864234924316 -24.265022277832024 L 4.122311115264893 -24.57600021362304 L 4.0960001945495605 -24.610443115234368 L 3.9620821475982666 -24.785755157470696 L 3.95749568939209 -24.79175949096679 L 3.67917537689209 -25.121604919433587 L 3.2524211406707764 -25.628223419189446 L 2.958486795425415 -25.944017410278313 L 2.509978771209717 -26.425254821777337 L 2.5073463916778564 -26.428079605102532 L 2.3063366413116455 -26.6240005493164 L 2.1989693641662598 -26.72864913940429 L 2.0480000972747803 -26.87592124938964 L 1.7268251180648804 -27.18923377990722 L 1.725881576538086 -27.190153121948235 L 1.4030613899230957 -27.474720001220696 L 0.9080263376235962 -27.911228179931634 L 0.5723245739936829 -28.179399490356438 L 0.05656140297651291 -28.590911865234368 L 0 -28.631620407104485 L -0.05610252916812897 -28.67200088500976 L -0.2916315793991089 -28.841518402099602 L -0.8262938857078552 -29.226816177368157 L -1.1865876913070679 -29.460245132446282 L -1.7373112440109253 -29.816453933715813 L -1.7389298677444458 -29.817499160766594 L -2.0480000972747803 -29.996623992919915 L -2.109372854232788 -30.032192230224602 L -2.678175449371338 -30.362012863159173 L -3.058767557144165 -30.557970046997063 L -3.373626470565796 -30.719999313354485 L -3.635244131088257 -30.854631423950188 L -3.6428112983703613 -30.85852622985839 L -4.032381534576416 -31.03496551513671 L -4.0960001945495605 -31.063852310180657 L -4.629837512969971 -31.30625915527343 L -5.027215003967285 -31.46318054199218 L -5.6272053718566895 -31.69933891296386 L -5.6374735832214355 -31.703382492065423 L -6.042267322540283 -31.84000396728515 L -6.144000053405762 -31.874481201171868 L -6.662890434265137 -32.050334930419915 L -7.0735392570495605 -32.16665649414062 L -7.703307151794434 -32.34467697143554 L -8.119030952453613 -32.44031143188476 L -8.192000389099121 -32.457038879394524 L -8.754416465759277 -32.58596038818359 L -8.757333755493164 -32.58662796020507 L -9.176960945129395 -32.661182403564446 L -9.776947021484375 -32.76800155639648 L -9.817829132080078 -32.77527999877929 L -9.82075023651123 -32.775798797607415 L -10.239999771118164 -32.82839965820312 L -10.243890762329102 -32.82888412475585 L -10.889738082885742 -32.91014862060546 L -10.893166542053223 -32.91057968139648 L -11.31786823272705 -32.94258880615234 L -11.969583511352539 -32.99197006225585 L -12.288000106811523 -33.00014114379882 L -12.395456314086914 -33.00289916992187 L -13.04495906829834 -33.01925659179687 L -13.048999786376953 -33.01935958862304 L -13.474872589111328 -33.008430480957024 L -14.128417015075684 -32.99197006225585 L -14.336000442504883 -32.97633743286132 L -14.553508758544922 -32.95996093749999 L -15.205833435058594 -32.91057968139648 L -15.628582954406738 -32.857490539550774 L -16.277250289916992 -32.775798797607415 L -16.321182250976562 -32.76800155639648 L -16.384000778198242 -32.75684738159179 L -16.697267532348633 -32.701240539550774 L -17.33681869506836 -32.5874900817871 L -17.34166717529297 -32.58662796020507 L -17.75739097595215 -32.49098968505859 L -18.388324737548828 -32.34622573852538 L -18.395082473754883 -32.34467697143554 L -18.43199920654297 -32.334217071533196 L -18.80573272705078 -32.22835159301757 L -19.43610954284668 -32.050334930419915 L -19.840513229370117 -31.913709640502923 L -20.45470428466797 -31.705560684204094 L -20.461135864257812 -31.703382492065423 L -20.479999542236328 -31.695932388305657 L -20.85851287841797 -31.546461105346673 L -21.468162536621094 -31.30625915527343 L -21.85773277282715 -31.12981986999511 L -22.455799102783203 -30.85852622985839 L -22.527999877929688 -30.821352005004876 L -22.7248477935791 -30.719999313354485 L -22.836389541625977 -30.662570953369134 L -23.420434951782227 -30.362012863159173 L -23.79126739501953 -30.147319793701165 L -24.35044288635254 -29.823081970214837 L -24.360069274902344 -29.817499160766594 L -24.576000213623047 -29.677450180053704 L -24.719974517822266 -29.58407020568847 L -25.272315979003906 -29.226816177368157 L -25.620508193969727 -28.976209640502923 L -26.042648315429688 -28.67200088500976 L -26.155170440673828 -28.590911865234368 L -26.491262435913086 -28.322740554809563 L -26.624000549316406 -28.216709136962884 L -27.003334045410156 -27.913690567016594 L -27.00641632080078 -27.911228179931634 L -27.328845977783203 -27.626663208007805 L -27.823881149291992 -27.190153121948235 L -28.132648468017578 -26.889583587646477 L -28.405248641967773 -26.6240005493164 L -28.606346130371094 -26.428079605102532 L -28.672000885009766 -26.35754203796386 L -28.900279998779297 -26.112285614013665 L -29.350811004638672 -25.628223419189446 L -29.629131317138672 -25.29837799072265 L -30.05144500732422 -24.797746658325188 L -30.056495666503906 -24.79175949096679 L -30.221012115478516 -24.57600021362304 L -30.31842041015625 -24.448249816894524 L -30.719999313354492 -23.922546386718746 L -30.720788955688477 -23.921512603759762 L -30.966320037841797 -23.565122604370114 L -31.34247398376465 -23.01826667785644 L -31.570438385009766 -22.650167465209957 L -31.64608383178711 -22.527999877929684 L -31.920377731323242 -22.085021972656246 L -32.13038635253906 -21.705600738525387 L -32.45101547241211 -21.12628364562988 L -32.4522819519043 -21.123994827270504 L -32.643550872802734 -20.734815597534176 L -32.768001556396484 -20.481790542602536 L -32.76887893676758 -20.479999542236325 L -32.93740463256836 -20.13735961914062 L -33.110328674316406 -19.73881149291992 L -33.37314987182617 -19.132816314697262 L -33.375526428222656 -19.127332687377926 L -33.52854537963867 -18.72097778320312 L -33.63758087158203 -18.431999206542965 L -33.76387023925781 -18.09730720520019 L -33.89775848388672 -17.68353462219238 L -34.10226058959961 -17.049341201782223 L -34.10260009765625 -17.04828071594238 L -34.21619415283203 -16.62826347351074 L -34.282283782958984 -16.38400077819824 L -34.389739990234375 -15.986871719360348 L -34.39055252075195 -15.983863830566403 L -34.48384475708008 -15.558382034301754 L -34.62700271606445 -14.906560897827145 L -34.627113342285156 -14.906057357788082 L -34.700111389160156 -14.477061271667477 L -34.72412109375 -14.33600044250488 L -34.811744689941406 -13.821204185485836 L -34.812286376953125 -13.818030357360836 L -34.816001892089844 -13.787054061889645 L -34.864200592041016 -13.385131835937496 L -34.94406509399414 -12.721223831176754 L -34.97559356689453 -12.28800010681152 L -34.975685119628906 -12.286763191223141 L -35.02358627319336 -11.624034881591795 L -35.02384567260742 -11.62041664123535 L -35.03399658203125 -11.18478488922119 L -35.04984664916992 -10.515999794006346 L -35.04341506958008 -10.239999771118162 L -35.039695739746094 -10.080368041992186 L -35.02395248413086 -9.416038513183592 L -35.02384567260742 -9.411582946777342 L -34.99222946166992 -8.977123260498045 L -34.94406509399414 -8.310776710510252 L -34.9298210144043 -8.19200038909912 L -34.89215087890625 -7.877877235412596 L -34.816001892089844 -7.244851112365721 L -34.812286376953125 -7.213969230651854 L -34.739288330078125 -6.784973621368406 L -34.63018798828125 -6.14400005340576 L -34.627113342285156 -6.125943183898924 L -34.53382110595703 -5.70046043395996 L -34.39055252075195 -5.048135757446288 L -34.27696228027344 -4.6281185150146475 L -34.13298034667969 -4.09600019454956 L -34.10503387451172 -3.9927165508270255 L -34.10260009765625 -3.98371934890747 L -33.968711853027344 -3.5699474811553946 L -33.79008483886719 -3.016000032424926 L -33.76387023925781 -2.934693098068237 L -33.6108512878418 -2.528337717056274 L -33.42960739135742 -2.04800009727478 L -33.37602996826172 -1.9060058593749996 L -33.375526428222656 -1.904666662216186 L -33.20260238647461 -1.5061184167861934 L -32.93740463256836 -0.8946403264999386 L -32.768001556396484 -0.5499560832977293 L -32.746131896972656 -0.5054605007171629 L -32.497528076171875 1.1102230246251565e-16 L -32.452396392822266 0.09175657480955134 L -32.4522819519043 0.09199561178684244 L -32.242271423339844 0.4714166522026062 L -31.920682907104492 1.0524710416793823 L -31.920377731323242 1.0530219078063965 L -31.692411422729492 1.4211227893829346 L -31.345975875854492 1.9806128740310665 L -31.34247398376465 1.9862675666809078 L -31.299943923950195 2.04800009727478 L -31.096942901611328 2.3426578044891353 L -30.720788955688477 2.889513254165649 L -30.719999313354492 2.890548467636108 L -30.458864212036133 3.2330219745635977 L -30.057207107543945 3.7588272094726554 L -30.056495666503906 3.759758710861205 L -29.778175354003906 4.0896053314208975 L -29.772781372070312 4.09600019454956 L -29.35095977783203 4.596048831939696 L -29.350811004638672 4.596223831176757 L -29.05687713623047 4.912017345428466 L -28.672000885009766 5.325539112091064 L -28.60883903503418 5.3934006690978995 L -28.606346130371094 5.3960790634155265 L -28.297578811645508 5.6966490745544425 L -27.838409423828125 6.14400005340576 L -27.823881149291992 6.158153533935545 L -27.50145149230957 6.44271945953369 L -27.01009178161621 6.875987529754637 L -27.00641632080078 6.879228115081785 L -26.670324325561523 7.147398948669432 L -26.624000549316406 7.184403896331785 L -26.15921401977539 7.555683135986326 L -26.155170440673828 7.558912277221678 L -25.806978225708008 7.809517383575438 L -25.276222229003906 8.19200038909912 L -25.272315979003906 8.19481563568115 L -24.912412643432617 8.428245544433592 L -24.576000213623047 8.645836830139158 L -24.365070343017578 8.782266616821287 L -24.360069274902344 8.785499572753904 L -23.98923683166504 9.000192642211912 L -23.420434951782227 9.330013275146483 L -23.03984260559082 9.525969505310057 L -22.527999877929688 9.789370536804197 L -22.460351943969727 9.824183464050291 L -22.455799102783203 9.826526641845701 L -22.06622886657715 10.002964973449705 L -21.543685913085938 10.239999771118162 L -21.468162536621094 10.274258613586424 L -21.070785522460938 10.431180000305174 L -20.479999542236328 10.663949012756346 L -20.468929290771484 10.668311119079588 L -20.461135864257812 10.671381950378416 L -20.056732177734375 10.80800437927246 L -19.43610954284668 11.018333435058592 L -19.025461196899414 11.134657859802244 L -18.43199920654297 11.302249908447264 L -18.395082473754883 11.312675476074217 L -17.979360580444336 11.408311843872069 L -17.34453773498535 11.553968429565428 L -17.34166717529297 11.554627418518065 L -16.921649932861328 11.629183769226072 L -16.384000778198242 11.724811553955076 L -16.280202865600586 11.743272781372069 L -16.277250289916992 11.743798255920408 L -15.854499816894531 11.796885490417479 L -15.20923900604248 11.878149986267088 L -15.205833435058594 11.87857913970947 L -14.780741691589355 11.910587310791014 L -14.336000442504883 11.944254875183104 L -14.128417015075684 11.959969520568846 L -13.702544212341309 11.970899581909178 L -13.053040504455566 11.987257957458494 L -13.048999786376953 11.98736000061035 L -12.623126983642578 11.976429939270018 L -12.288000106811523 11.967988967895506 L -11.969583511352539 11.959969520568846 L -11.544881820678711 11.927960395812987 L -10.893166542053223 11.87857913970947 L -10.470026016235352 11.825490951538084 L -10.239999771118164 11.796548843383787 L -9.82075023651123 11.743798255920408 L -9.401123046875 11.669240951538084 L -8.763997077941895 11.555813789367674 L -8.757333755493164 11.554627418518065 L -8.341609954833984 11.458991050720213 L -8.192000389099121 11.424696922302244 L -7.707902908325195 11.313729286193846 L -7.703307151794434 11.312675476074217 L -7.292657852172852 11.196351051330565 L -6.662890434265137 11.018333435058592 L -6.258096694946289 10.881710052490233 L -6.144000053405762 10.843043327331541 L -5.646811485290527 10.674546241760252 L -5.6374735832214355 10.671381950378416 L -5.240096569061279 10.514460563659666 L -4.629837512969971 10.274258613586424 L -4.554195404052734 10.239999771118162 L -4.240267753601074 10.09782028198242 L -4.0960001945495605 10.032310485839842 L -3.6444337368011475 9.827262878417967 L -3.6428112983703613 9.826526641845701 L -3.262219190597534 9.630570411682127 L -2.678175449371338 9.330013275146483 L -2.307732343673706 9.115320205688475 L -2.0480000972747803 8.964714050292967 L -1.7447861433029175 8.788895606994627 L -1.7389298677444458 8.785499572753904 L -1.3786360025405884 8.55207061767578 L -0.8262938857078552 8.19481563568115 L -0.8223815560340881 8.19200038909912 L -0.47810086607933044 7.944210529327391 L 2.0197528420547373e-16 7.599672794342039 L 0.05236753821372986 7.561934471130369 L 0.05656140297651291 7.558912277221678 L 0.39226314425468445 7.290741443634031 L 0.9080263376235962 6.879228115081785 L 1.2308465242385864 6.594662189483641 L 1.725881576538086 6.158153533935545 L 1.7404026985168457 6.14400005340576 L 2.0342588424682617 5.85758352279663 L 2.0480000972747803 5.844178676605224 L 2.5031354427337646 5.400187015533446 L 2.5073463916778564 5.3960790634155265 L 2.8012807369232178 5.080285072326659 L 3.2524211406707764 4.596223831176757 L 3.5307412147521973 4.266376972198485 L 3.674259901046753 4.09600019454956 L 3.956564426422119 3.760864257812499 L 3.95749568939209 3.759758710861205 L 4.0960001945495605 3.5783839225769034 L 4.21981143951416 3.416249990463256 L 4.622158050537109 2.889541864395141 L 4.622179985046387 2.889513254165649 L 4.8673200607299805 2.5331227779388423 M 28.417024612426758 44.5829734802246 L 28.41703224182129 44.5829849243164 L 28.714399337768555 44.894973754882805 L 28.724550247192383 44.90562438964843 L 28.854215621948242 45.05599975585937 L 29.00535011291504 45.23127365112304 L 29.01497459411621 45.24242401123046 L 29.01507568359375 45.24255371093749 L 29.280174255371094 45.58269882202148 L 29.28922462463379 45.5943260192871 L 29.536874771118164 45.94630050659179 L 29.54537582397461 45.95832443237304 L 29.545740127563477 45.95890045166015 L 29.77644920349121 46.3219985961914 L 29.784324645996094 46.3344497680664 L 29.995899200439453 46.708850860595696 L 30.003150939941406 46.72164916992187 L 30.003286361694336 46.72192001342773 L 30.197174072265625 47.10677337646484 L 30.203800201416016 47.11992645263671 L 30.203800201416016 47.11992645263671 L 30.378324508666992 47.51382446289062 L 30.384300231933594 47.52730178833007 L 30.38433074951172 47.52738189697265 L 30.539325714111328 47.92900085449218 L 30.54462432861328 47.9427261352539 L 30.54464340209961 47.94278335571288 L 30.679174423217773 48.351249694824205 L 30.683774948120117 48.36524963378905 L 30.798824310302734 48.78060150146483 L 30.802749633789062 48.794773101806626 L 30.883146286010742 49.15200042724608 L 30.89732551574707 49.215000152587876 L 30.900550842285156 49.22937393188475 L 30.97464942932129 49.65349960327147 L 30.977174758911133 49.66799926757811 L 31.02982521057129 50.0960235595703 L 31.031625747680664 50.110649108886705 L 31.031625747680664 50.1106719970703 L 31.062824249267578 50.53964996337889 L 31.06392478942871 50.55432510375975 L 31.063941955566406 50.5550079345703 L 31.074649810791016 50.98527526855467 L 31.075000762939453 50.999999999999986 L 31.06427574157715 51.43095016479491 L 31.06392478942871 51.44567489624022 L 31.063899993896484 51.446018218994126 L 31.032724380493164 51.87467575073241 L 31.031625747680664 51.88935089111327 L 30.978975296020508 52.317375183105455 L 30.977174758911133 52.33200073242186 L 30.903074264526367 52.75612640380858 L 30.900550842285156 52.77062606811522 L 30.9005126953125 52.77079010009764 L 30.80597496032715 53.190849304199205 L 30.802749633789062 53.205226898193345 L 30.802696228027344 53.20542144775389 L 30.79090118408203 53.2480010986328 L 30.687700271606445 53.62057495117186 L 30.683774948120117 53.63475036621092 L 30.683765411376953 53.63477706909178 L 30.549224853515625 54.043273925781236 L 30.54462432861328 54.05727386474608 L 30.5445499420166 54.057468414306626 L 30.38960075378418 54.458976745605455 L 30.384300231933594 54.47269821166991 L 30.209775924682617 54.86660003662108 L 30.203800201416016 54.88007354736327 L 30.009775161743164 55.2652015686035 L 30.003150939941406 55.27835083007811 L 29.791574478149414 55.65274810791014 L 29.784324645996094 55.66555023193358 L 29.55324935913086 56.02922439575194 L 29.54537582397461 56.04167556762694 L 29.545007705688477 56.04219818115233 L 29.297725677490234 56.393650054931626 L 29.28922462463379 56.405673980712876 L 29.024024963378906 56.74594879150389 L 29.01497459411621 56.75757598876952 L 29.014869689941406 56.75769805908202 L 28.734174728393555 57.083225250244126 L 28.724550247192383 57.09437561035155 L 28.48662567138672 57.34400177001952 L 28.427175521850586 57.40637588500975 L 28.417024612426758 57.417026519775376 L 28.417016983032227 57.41703414916991 L 28.105024337768555 57.71440124511717 L 28.094375610351562 57.724548339843736 L 27.76872444152832 58.00534820556639 L 27.7575740814209 58.01497650146483 L 27.7574462890625 58.015075683593736 L 27.417299270629883 58.28017425537108 L 27.405675888061523 58.28922653198241 L 27.053699493408203 58.53687667846678 L 27.041675567626953 58.545375823974595 L 27.041099548339844 58.54573822021483 L 26.67799949645996 58.77645111083983 L 26.665550231933594 58.78432464599608 L 26.291149139404297 58.99589920043944 L 26.278350830078125 59.00315093994139 L 26.278078079223633 59.003288269042955 L 25.893224716186523 59.19717407226561 L 25.880075454711914 59.203800201416 L 25.88007354736328 59.203800201416 L 25.486175537109375 59.37832641601561 L 25.472700119018555 59.38430023193358 L 25.472618103027344 59.384330749511705 L 25.070999145507812 59.539325714111314 L 25.057275772094727 59.54462432861327 L 25.057218551635742 59.544643402099595 L 24.64875030517578 59.67917633056639 L 24.634750366210938 59.683776855468736 L 24.576000213623047 59.70005035400389 L 24.21940040588379 59.79882431030272 L 24.205224990844727 59.80274963378905 L 23.78499984741211 59.89732360839842 L 23.7706241607666 59.90055084228514 L 23.346500396728516 59.97465133666991 L 23.332000732421875 59.97717666625975 L 22.903974533081055 60.02982330322264 L 22.88935089111328 60.03162384033202 L 22.88932991027832 60.03162765502928 L 22.460350036621094 60.062824249267564 L 22.445674896240234 60.06392669677733 L 22.444990158081055 60.06394195556639 L 22.014724731445312 60.074649810791 L 22 60.07500076293944 L 21.569049835205078 60.0642738342285 L 21.554325103759766 60.06392669677733 L 21.55398178100586 60.06389999389647 L 21.125324249267578 60.03272628784178 L 21.11064910888672 60.03162384033202 L 20.68262481689453 59.97897338867186 L 20.667999267578125 59.97717666625975 L 20.479999542236328 59.944328308105455 L 20.24387550354004 59.903076171874986 L 20.2293758392334 59.90055084228514 L 20.229209899902344 59.900512695312486 L 19.80915069580078 59.80597686767577 L 19.794775009155273 59.80274963378905 L 19.794578552246094 59.80269622802733 L 19.379425048828125 59.6876983642578 L 19.365249633789062 59.683776855468736 L 19.365222930908203 59.68376541137694 L 18.956724166870117 59.54922485351561 L 18.942724227905273 59.54462432861327 L 18.94253158569336 59.54455184936522 L 18.541025161743164 59.38959884643553 L 18.527299880981445 59.38430023193358 L 18.133399963378906 59.20977401733397 L 18.119924545288086 59.203800201416 L 17.734800338745117 59.00977325439452 L 17.721649169921875 59.00315093994139 L 17.34724998474121 58.79157638549803 L 17.334449768066406 58.78432464599608 L 16.970775604248047 58.553249359130845 L 16.958324432373047 58.545375823974595 L 16.95780372619629 58.545009613037095 L 16.60634994506836 58.29772567749022 L 16.594324111938477 58.28922653198241 L 16.384000778198242 58.125305175781236 L 16.25404930114746 58.02402496337889 L 16.2424259185791 58.01497650146483 L 16.24230194091797 58.01486968994139 L 15.91677474975586 57.73417663574217 L 15.905625343322754 57.724548339843736 L 15.59362506866455 57.42717361450194 L 15.582975387573242 57.417026519775376 L 15.582966804504395 57.41701507568358 L 15.513373374938965 57.34400177001952 L 15.285599708557129 57.10502624511717 L 15.275449752807617 57.09437561035155 L 14.994649887084961 56.76872634887694 L 14.985025405883789 56.75757598876952 L 14.984925270080566 56.757446289062486 L 14.71982479095459 56.4173011779785 L 14.710775375366211 56.405673980712876 L 14.463125228881836 56.05369949340819 L 14.454625129699707 56.04167556762694 L 14.454259872436523 56.04109954833983 L 14.223549842834473 55.67800140380858 L 14.215675354003906 55.66555023193358 L 14.00409984588623 55.29114913940428 L 13.99685001373291 55.27835083007811 L 13.996712684631348 55.27807998657225 L 13.802824974060059 54.89322662353514 L 13.796199798583984 54.88007354736327 L 13.796199798583984 54.88007354736327 L 13.621674537658691 54.48617553710936 L 13.615699768066406 54.47269821166991 L 13.615668296813965 54.47261810302733 L 13.460675239562988 54.0709991455078 L 13.455374717712402 54.05727386474608 L 13.45535659790039 54.057216644287095 L 13.32082462310791 53.64875030517577 L 13.316225051879883 53.63475036621092 L 13.209096908569336 53.2480010986328 L 13.20117473602295 53.21939849853514 L 13.197250366210938 53.205226898193345 L 13.102675437927246 52.784999847412095 L 13.09945011138916 52.77062606811522 L 13.025349617004395 52.3465003967285 L 13.022825241088867 52.33200073242186 L 12.970174789428711 51.90397644042967 L 12.968375205993652 51.88935089111327 L 12.96837329864502 51.88932800292967 L 12.937174797058105 51.46035003662108 L 12.936075210571289 51.44567489624022 L 12.936058044433594 51.44499206542967 L 12.925350189208984 51.0147247314453 L 12.925000190734863 50.999999999999986 L 12.935725212097168 50.569049835205064 L 12.936075210571289 50.55432510375975 L 12.936100006103516 50.553981781005845 L 12.96727466583252 50.125324249267564 L 12.968375205993652 50.110649108886705 L 13.021024703979492 49.68262481689452 L 13.022825241088867 49.66799926757811 L 13.096924781799316 49.24387359619139 L 13.09945011138916 49.22937393188475 L 13.0994873046875 49.22920989990233 L 13.116864204406738 49.15200042724608 L 13.194025039672852 48.80915069580077 L 13.197250366210938 48.794773101806626 L 13.197304725646973 48.79457855224608 L 13.312299728393555 48.37942504882811 L 13.316225051879883 48.36524963378905 L 13.31623363494873 48.36522293090819 L 13.450775146484375 47.95672607421874 L 13.455374717712402 47.9427261352539 L 13.455450057983398 47.94253158569335 L 13.610400199890137 47.541023254394524 L 13.615699768066406 47.52730178833007 L 13.7902250289917 47.1333999633789 L 13.796199798583984 47.11992645263671 L 13.990224838256836 46.73479843139648 L 13.99685001373291 46.72164916992187 L 14.20842456817627 46.34725189208984 L 14.215675354003906 46.3344497680664 L 14.446749687194824 45.97077560424804 L 14.454625129699707 45.95832443237304 L 14.454992294311523 45.95780181884765 L 14.702275276184082 45.60634994506835 L 14.710775375366211 45.5943260192871 L 14.975975036621094 45.25405120849609 L 14.985025405883789 45.24242401123046 L 14.98513126373291 45.24230194091796 L 15.145774841308594 45.05599975585937 L 15.265825271606445 44.91677474975585 L 15.275449752807617 44.90562438964843 L 15.57282543182373 44.59362411499023 L 15.582975387573242 44.5829734802246 L 15.58298397064209 44.58296585083007 L 15.894974708557129 44.285598754882805 L 15.905625343322754 44.27545166015624 L 16.23127555847168 43.99465179443359 L 16.2424259185791 43.98502349853515 L 16.2425537109375 43.98492431640624 L 16.384000778198242 43.87468719482421 L 16.582700729370117 43.7198257446289 L 16.594324111938477 43.71077346801757 L 16.946300506591797 43.463123321533196 L 16.958324432373047 43.45462417602538 L 16.958900451660156 43.45426177978515 L 17.32200050354004 43.22354888916015 L 17.334449768066406 43.2156753540039 L 17.708850860595703 43.00410079956054 L 17.721649169921875 42.99684906005859 L 17.721921920776367 42.996711730957024 L 18.106775283813477 42.80282592773437 L 18.119924545288086 42.79619979858398 L 18.11992645263672 42.79619979858398 L 18.513824462890625 42.62167358398437 L 18.527299880981445 42.6156997680664 L 18.527381896972656 42.615669250488274 L 18.929000854492188 42.460674285888665 L 18.942724227905273 42.45537567138671 L 18.942781448364258 42.45535659790038 L 19.35124969482422 42.32082366943359 L 19.365249633789062 42.31622314453124 L 19.78059959411621 42.20117568969726 L 19.794775009155273 42.19725036621093 L 20.21500015258789 42.102676391601555 L 20.2293758392334 42.09944915771484 L 20.479999542236328 42.05566406249999 L 20.653499603271484 42.02534866333007 L 20.667999267578125 42.02282333374023 L 21.096025466918945 41.97017669677734 L 21.11064910888672 41.96837615966796 L 21.11067008972168 41.968372344970696 L 21.539649963378906 41.937175750732415 L 21.554325103759766 41.93607330322265 L 21.555009841918945 41.93605804443359 L 21.985275268554688 41.92535018920898 L 22 41.92499923706054 L 22.430950164794922 41.93572616577148 L 22.445674896240234 41.93607330322265 L 22.44601821899414 41.93610000610351 L 22.874675750732422 41.967273712158196 L 22.88935089111328 41.96837615966796 L 23.31737518310547 42.02102661132812 L 23.332000732421875 42.02282333374023 L 23.75612449645996 42.09692382812499 L 23.7706241607666 42.09944915771484 L 23.770790100097656 42.09948730468749 L 24.19084930419922 42.19402313232421 L 24.205224990844727 42.19725036621093 L 24.205421447753906 42.19730377197265 L 24.576000213623047 42.29995346069335 L 24.620574951171875 42.31230163574218 L 24.634750366210938 42.31622314453124 L 24.634777069091797 42.31623458862304 L 25.043275833129883 42.45077514648437 L 25.057275772094727 42.45537567138671 L 25.05746841430664 42.45544815063476 L 25.458974838256836 42.610401153564446 L 25.472700119018555 42.6156997680664 L 25.866600036621094 42.79022598266601 L 25.880075454711914 42.79619979858398 L 26.265199661254883 42.99022674560546 L 26.278350830078125 42.99684906005859 L 26.65275001525879 43.208423614501946 L 26.665550231933594 43.2156753540039 L 27.029224395751953 43.44675064086913 L 27.041675567626953 43.45462417602538 L 27.04219627380371 43.45499038696288 L 27.39365005493164 43.70227432250976 L 27.405675888061523 43.71077346801757 L 27.74595069885254 43.97597503662109 L 27.7575740814209 43.98502349853515 L 27.75769805908203 43.98513031005859 L 28.08322525024414 44.265823364257805 L 28.094375610351562 44.27545166015624 L 28.406375885009766 44.57282638549804 L 28.417024612426758 44.5829734802246 z" fill="none" stroke="rgb(255,0,0)" stroke-width="0.001mm" />
</svg>